<?xml version="1.0" encoding="UTF-8"?>
<svg width="164px" height="40px" viewBox="0 0 164 40" version="1.1" xmlns="http://www.w3.org/2000/svg" xmlns:xlink="http://www.w3.org/1999/xlink">
    <!-- Generator: sketchtool 61 (101010) - https://sketch.com -->
    <title>AFA04E00-AAB7-4D41-B752-CDB9A46C25CC</title>
    <desc>Created with sketchtool.</desc>
    <defs>
        <polygon id="path-1" points="0 0.100753282 33.120749 0.100753282 33.120749 38.6931298 0 38.6931298"></polygon>
        <polygon id="path-3" points="0.0319650276 0.192558779 33.155159 0.192558779 33.155159 38.9614424 0.0319650276 38.9614424"></polygon>
        <polygon id="path-5" points="0 39.4074412 163.867099 39.4074412 163.867099 0.302290076 0 0.302290076"></polygon>
    </defs>
    <g id="Desktop" stroke="none" stroke-width="1" fill="none" fill-rule="evenodd">
        <g id="U4-Desktop-Drop-Down" transform="translate(-52.000000, -45.000000)">
            <g id="Top-Navigation" transform="translate(52.000000, 20.000000)">
                <g id="Logo" transform="translate(0.000000, 25.000000)">
                    <g id="Group-3" transform="translate(0.000000, 0.714311)">
                        <mask id="mask-2" fill="white">
                            <use xlink:href="#path-1"></use>
                        </mask>
                        <g id="Clip-2"></g>
                        <path d="M25.5538814,0.100753282 L25.5538814,22.7356296 C25.5538814,28.3733395 22.1919694,31.7390373 16.5614159,31.7390373 C10.8940376,31.7390373 7.51129855,28.3733395 7.51129855,22.7356296 L7.51129855,0.100753282 L-3.01841621e-05,0.100753282 L-3.01841621e-05,21.878335 C-3.01841621e-05,31.9355258 6.65587939,38.6932205 16.5614159,38.6932205 C26.4660468,38.6932205 33.120749,31.9355258 33.120749,21.878335 L33.120749,0.100753282 L25.5538814,0.100753282 Z" id="Fill-1" fill="#7C878F" mask="url(#mask-2)"></path>
                    </g>
                    <g id="Group-6" transform="translate(42.559669, 0.109731)">
                        <mask id="mask-4" fill="white">
                            <use xlink:href="#path-3"></use>
                        </mask>
                        <g id="Clip-5"></g>
                        <path d="M16.5931092,0.192437863 C6.68757276,0.192437863 0.0319650276,6.94922565 0.0319650276,17.004905 L0.0319650276,38.9614424 L7.60154919,38.9614424 L7.60154919,16.1497264 C7.60154919,10.5108073 10.9631593,7.14450504 16.5931092,7.14450504 C22.259582,7.14450504 25.6429247,10.5108073 25.6429247,16.1497264 L25.6429247,38.9614424 L33.155159,38.9614424 L33.155159,17.004905 C33.155159,6.94922565 26.4992494,0.192437863 16.5931092,0.192437863" id="Fill-4" fill="#7C878F" mask="url(#mask-4)"></path>
                    </g>
                    <mask id="mask-6" fill="white">
                        <use xlink:href="#path-5"></use>
                    </mask>
                    <g id="Clip-8"></g>
                    <polygon id="Fill-7" fill="#7C878F" mask="url(#mask-6)" points="86.9644948 39.0712947 94.4761254 39.0712947 94.4761254 0.814974046 86.9644948 0.814974046"></polygon>
                    <polygon id="Fill-9" fill="#7C878F" mask="url(#mask-6)" points="104.509492 0.815064733 104.509492 7.9379258 115.759431 7.9379258 115.759431 39.0710831 123.269854 39.0710831 123.269854 7.9379258 134.521 7.9379258 134.521 0.815064733"></polygon>
                    <path d="M163.867069,0.815064733 L155.739078,0.815064733 L137.479773,26.427196 C136.948532,27.1898739 136.745392,28.1136724 136.908085,29.0290067 C137.070777,29.9452479 137.57938,30.7417823 138.340927,31.2732082 C138.925594,31.6837182 139.613793,31.9004602 140.330365,31.9004602 L140.330667,31.9004602 L154.270317,31.8941121 L154.270317,39.0710831 L161.222635,39.0710831 L161.244367,25.908164 L146.318299,25.908164 L163.867069,0.815064733 Z" id="Fill-10" fill="#85BC3B" mask="url(#mask-6)"></path>
                </g>
            </g>
        </g>
    </g>
</svg>